<svg xmlns="http://www.w3.org/2000/svg" width="720" height="380" viewBox="0 0 720 380" font-family="Archivo, Arial, sans-serif">
<defs><clipPath id="frame"><rect width="720" height="380"/></clipPath>
<linearGradient id="sky" x1="0" y1="0" x2="0" y2="1"><stop offset="0" stop-color="#cfd8de"/><stop offset="1" stop-color="#e0e5e8"/></linearGradient></defs>
<g clip-path="url(#frame)">
<rect width="720" height="380" fill="url(#sky)"/>
<polygon points="91180.2,28303.7 478.1,407.9 444.4,254.5 69219.6,-225499.9" fill="#e4e0db"/>
<polygon points="82338.1,-68050.6 3872.3,-3040.0 81342.0,-79562.8" fill="#84888a"/>
<polygon points="7489.7,-3137.2 1099.9,39.6 819.6,-24.6 1348.3,-546.8" fill="#84888a"/>
<polygon points="863.5,157.2 692.3,242.3 625.3,167.3 719.0,74.8" fill="#84888a"/>
<polygon points="641.7,267.4 585.9,295.2 554.9,236.8 593.2,199.0" fill="#84888a"/>
<polygon points="564.4,305.8 537.0,319.5 518.6,272.7 539.3,252.3" fill="#84888a"/>
<polygon points="525.2,325.4 508.9,333.5 496.4,294.6 509.4,281.8" fill="#84888a"/>
<polygon points="501.4,337.2 490.6,342.6 481.4,309.4 490.3,300.6" fill="#84888a"/>
<polygon points="81495.1,-71958.7 8811.7,-7612.3 81111.6,-76390.3" fill="#bec4c6"/>
<polygon points="3605.9,-1342.9 1101.7,9.0 849.8,-38.2 1325.5,-490.8" fill="#bec4c6"/>
<polygon points="826.6,157.5 691.0,230.7 633.3,167.8 715.8,89.2" fill="#bec4c6"/>
<polygon points="630.5,263.4 584.8,288.0 558.4,239.0 591.8,207.2" fill="#bec4c6"/>
<polygon points="558.8,302.1 536.1,314.3 520.5,275.1 538.5,257.9" fill="#bec4c6"/>
<polygon points="521.7,322.1 508.1,329.5 497.6,296.9 508.8,286.2" fill="#bec4c6"/>
<polygon points="498.9,334.4 489.9,339.3 482.2,311.5 489.9,304.2" fill="#bec4c6"/>
<polygon points="19535.5,-29436.6 469.4,284.2 327.2,290.3 -23887.1,-29436.6" fill="#555b58"/>
<polygon points="19755.1,-26898.6 471.3,291.3 467.6,277.4 19315.9,-31974.6" fill="#585e5b"/>
<polygon points="-23667.5,-26898.6 326.7,297.0 327.7,283.8 -24106.7,-31974.6" fill="#585e5b"/>
<polygon points="471.3,291.3 326.7,297.0 327.7,283.8 467.6,277.4" fill="#585e5b"/>
<polygon points="558.7,667.2 552.3,655.5 538.0,653.9 543.8,665.5" fill="#1f1d1a"/>
<polygon points="322.1,640.1 325.2,630.5 313.5,629.2 310.0,638.7" fill="#1f1d1a"/>
<polygon points="552.3,655.5 538.0,653.9 457.3,298.2 464.7,297.9" fill="#272522"/>
<polygon points="325.2,630.5 313.5,629.2 333.5,302.8 340.2,302.5" fill="#272522"/>
<polygon points="558.7,667.2 552.3,655.5 464.7,297.9 466.1,295.9" fill="#242220"/>
<polygon points="310.0,638.7 313.5,629.2 333.5,302.8 331.9,301.0" fill="#242220"/>
<polygon points="543.8,665.5 538.0,653.9 457.3,298.2 458.5,296.2" fill="#242220"/>
<polygon points="322.1,640.1 325.2,630.5 340.2,302.5 338.8,300.7" fill="#242220"/>
<polygon points="460.9,296.9 336.7,301.5 337.3,290.9 458.3,285.7" fill="#312f2c"/>
<polygon points="558.7,667.2 543.8,665.5 458.5,296.2 466.1,295.9" fill="#272522"/>
<polygon points="322.1,640.1 310.0,638.7 331.9,301.0 338.8,300.7" fill="#272522"/>
<polygon points="465.4,296.9 457.9,297.2 454.9,284.2 462.2,283.9" fill="#312f2c"/>
<polygon points="339.5,301.6 332.7,301.9 333.5,289.4 340.1,289.1" fill="#312f2c"/>
<polygon points="461.9,295.3 460.9,296.9 458.3,285.7 459.2,284.1" fill="#2a2825"/>
<polygon points="335.6,300.2 336.7,301.5 337.3,290.9 336.2,289.4" fill="#2a2825"/>
<polygon points="461.9,295.3 460.9,296.9 336.7,301.5 335.6,300.2" fill="#211f1c"/>
<polygon points="461.9,295.3 335.6,300.2 336.2,289.4 459.2,284.1" fill="#312f2c"/>
<polygon points="17000.1,-23726.0 465.4,296.9 462.2,283.9 16615.8,-28167.6" fill="#2a2825"/>
<polygon points="-20363.5,-23726.0 332.7,301.9 333.5,289.4 -20747.8,-28167.6" fill="#2a2825"/>
<polygon points="14980.5,-23726.0 457.9,297.2 454.9,284.2 14596.2,-28167.6" fill="#2a2825"/>
<polygon points="-18343.8,-23726.0 339.5,301.6 340.1,289.1 -18728.1,-28167.6" fill="#2a2825"/>
<polygon points="17000.1,-23726.0 465.4,296.9 457.9,297.2 14980.5,-23726.0" fill="#211f1c"/>
<polygon points="-18343.8,-23726.0 339.5,301.6 332.7,301.9 -20363.5,-23726.0" fill="#211f1c"/>
<polygon points="483.1,262.0 311.9,270.9 313.5,257.5 478.7,247.9" fill="#312f2c"/>
<polygon points="485.0,259.0 483.1,262.0 478.7,247.9 480.4,244.7" fill="#2a2825"/>
<polygon points="309.8,268.3 311.9,270.9 313.5,257.5 311.5,254.7" fill="#2a2825"/>
<polygon points="485.0,259.0 483.1,262.0 311.9,270.9 309.8,268.3" fill="#211f1c"/>
<polygon points="485.0,259.0 309.8,268.3 311.5,254.7 480.4,244.7" fill="#312f2c"/>
<polygon points="-3524.6,12520.5 -966.6,4620.2 -1044.6,4265.2 -3186.6,9999.7" fill="#1f1d1a"/>
<polygon points="20317.9,37960.1 525.3,185.6 543.1,184.1 22298.5,37508.0" fill="#272522"/>
<polygon points="-966.6,4620.2 -1044.6,4265.2 251.9,208.1 265.9,207.0" fill="#272522"/>
<polygon points="22298.5,37508.0 543.1,184.1 550.7,173.1 22020.1,34291.1" fill="#242220"/>
<polygon points="-3186.6,9999.7 -1044.6,4265.2 251.9,208.1 244.6,199.6" fill="#242220"/>
<polygon points="20317.9,37960.1 525.3,185.6 531.9,174.7 20039.6,34743.2" fill="#242220"/>
<polygon points="-3524.6,12520.5 -966.6,4620.2 265.9,207.0 259.2,198.3" fill="#242220"/>
<polygon points="20039.6,34743.2 531.9,174.7 550.7,173.1 22020.1,34291.1" fill="#272522"/>
<polygon points="-3524.6,12520.5 -3186.6,9999.7 244.6,199.6 259.2,198.3" fill="#272522"/>
<polygon points="534.1,181.9 258.5,205.0 263.8,187.7 524.0,163.9" fill="#312f2c"/>
<polygon points="539.4,173.7 534.1,181.9 524.0,163.9 528.6,155.4" fill="#2a2825"/>
<polygon points="253.3,198.5 258.5,205.0 263.8,187.7 259.0,181.0" fill="#2a2825"/>
<polygon points="539.4,173.7 253.3,198.5 259.0,181.0 528.6,155.4" fill="#312f2c"/>
<polygon points="539.4,173.7 534.1,181.9 258.5,205.0 253.3,198.5" fill="#211f1c"/>
<polygon points="820.7,-268.1 774.4,-195.3 712.5,-185.6 744.7,-245.3" fill="#2a2825"/>
<polygon points="29.4,-77.9 60.0,-40.1 94.2,-50.3 70.1,-84.3" fill="#2a2825"/>
<polygon points="820.7,-268.1 29.4,-77.9 70.1,-84.3 744.7,-245.3" fill="#312f2c"/>
<polygon points="774.4,-195.3 60.0,-40.1 94.2,-50.3 712.5,-185.6" fill="#312f2c"/>
<polygon points="820.7,-268.1 774.4,-195.3 60.0,-40.1 29.4,-77.9" fill="#211f1c"/>
</g>
</svg>
